<svg xmlns="http://www.w3.org/2000/svg" width="1em" height="1em" viewBox="0 0 32 32"><path fill="#dbbd30" d="M12.03 13.98a12.67 12.67 0 0 0 .08.07l.2.13a6.5 6.5 0 0 0 .04.03l.1.06a.72.72 0 0 1 .08.05a.88.88 0 0 1 .05.04a1.66 1.66 0 0 0 .03.02l.15.12a10.97 10.97 0 0 0 .01 0a1.61 1.61 0 0 0-.03.1q-.05.12-.05.2a1.1 1.1 0 0 0 .01.16a1 1 0 0 0 0 .03a2.94 2.94 0 0 0 .03.14a3.42 3.42 0 0 0 .02.06a.47.47 0 0 1 0 .06q.02.06.01.14a1.44 1.44 0 0 1 0 .07a22.2 22.2 0 0 1-.67.41q-.54.31-.99.53q-.72.35-1.39.6a26.6 26.6 0 0 1-1.38.48a29.31 29.31 0 0 1-.01 0q-.5.16-1.1.4a36.45 36.45 0 0 0-.57.21q.3.18.74.33a6.2 6.2 0 0 0 .27.09a17.59 17.59 0 0 1 1.24.4q.61.23 1.12.57a1.75 1.75 0 0 1 .45.42a1.57 1.57 0 0 1 .23.46q.22.02.4.24a.99.99 0 0 1 .02.04a.83.83 0 0 1 .15.48a1.07 1.07 0 0 1 0 .1a2.13 2.13 0 0 0-.32.24a.87.87 0 0 1-.2.13a1.17 1.17 0 0 1-.17.06a.7.7 0 0 1-.08.01q-.16.01-.4-.04q-.3-.07-.64-.19a57.25 57.25 0 0 1-.36-.12a66.25 66.25 0 0 1-.37-.13q-.39-.14-.73-.22a9.07 9.07 0 0 0-.42-.1a11.26 11.26 0 0 0-.31-.05a3.8 3.8 0 0 1-.52-.13a3.27 3.27 0 0 1-.22-.08a1.2 1.2 0 0 1-.16-.08a.97.97 0 0 1-.1-.08a.6.6 0 0 0-.23-.12a.7.7 0 0 0-.04 0a2.62 2.62 0 0 1-.33-.09a3.52 3.52 0 0 1-.32-.11l-.7-.32a82.95 82.95 0 0 1-.71-.34a22.67 22.67 0 0 0-.34-.16a18.2 18.2 0 0 0-.31-.14q.01-.1-.22-.26a1.05 1.05 0 0 0-.51-.17a.49.49 0 0 0-.12-.3a.66.66 0 0 0-.04-.06q-.16-.16-.25-.37a1 1 0 0 1-.06-.2q-.04-.28.1-.54a1.14 1.14 0 0 1 .1-.15a1.24 1.24 0 0 1 .57-.42a1.83 1.83 0 0 1 .4-.1a1.75 1.75 0 0 0 .09.04q.13.03.21.03q.12-.01.3.07q.31-.2.74-.4t.84-.1a.24.24 0 0 1 .04-.08q.05-.05.12-.06a.27.27 0 0 1 .04 0q.14 0 .18-.16a7.1 7.1 0 0 0 1.35-.37q.67-.25 1.3-.55a49.04 49.04 0 0 0 1.17-.58a45.04 45.04 0 0 0 .04-.01a22.9 22.9 0 0 1 .82-.4a19.64 19.64 0 0 1 .3-.14a.83.83 0 0 0 .15.03h.07a.64.64 0 0 0 .23-.04a.97.97 0 0 1 .34-.06a1.04 1.04 0 0 1 .08 0q-.05.05-.02.07a.17.17 0 0 0 .03.01l.07.02a9.74 9.74 0 0 0 .07 0a11.59 11.59 0 0 0 .08.01a.22.22 0 0 1 .08.03a.2.2 0 0 1 .05.03m17.4 2.75a.49.49 0 0 0 .12.31a.66.66 0 0 0 .05.06q.16.16.25.36q.07.17.07.34a.8.8 0 0 1-.02.14a.91.91 0 0 1-.19.42a1.24 1.24 0 0 1-.23.22a1.58 1.58 0 0 1-.17.1a1.59 1.59 0 0 1-.34.14a2 2 0 0 1-.23.05a1.36 1.36 0 0 0-.09-.03q-.13-.05-.21-.04a.23.23 0 0 0-.01 0a.25.25 0 0 1-.03 0q-.1 0-.25-.06a1.33 1.33 0 0 1-.02 0q-.3.2-.74.4q-.43.19-.84.1a.24.24 0 0 1-.04.07q-.04.06-.12.07a.27.27 0 0 1-.03 0q-.15 0-.18.15a7.1 7.1 0 0 0-1.36.38q-.66.25-1.29.55q-.63.3-1.21.6a14.05 14.05 0 0 1-.72.35a11.74 11.74 0 0 1-.4.18a.83.83 0 0 0-.15-.03h-.08a.64.64 0 0 0-.22.03a.97.97 0 0 1-.35.07a1.04 1.04 0 0 1-.07 0q.04-.05.02-.07a.17.17 0 0 0-.03-.01l-.08-.02a9.74 9.74 0 0 0-.07 0a11.59 11.59 0 0 0-.07-.02a.22.22 0 0 1-.08-.02a.2.2 0 0 1-.05-.04l-.28-.18l-.15-.1a1.05 1.05 0 0 1-.07-.04l-.06-.05a1.9 1.9 0 0 1-.04-.03l-.15-.12q.07-.17.08-.28a.94.94 0 0 0 0-.07v-.1a.67.67 0 0 0 0-.04a2.94 2.94 0 0 0-.04-.13a3.42 3.42 0 0 0-.01-.06a.47.47 0 0 1-.01-.06v-.15a1.44 1.44 0 0 1 0-.06a23.24 23.24 0 0 1 .67-.41q.53-.32.98-.53q.7-.35 1.39-.6a28.94 28.94 0 0 1 1.4-.5q.5-.15 1.1-.37a36.45 36.45 0 0 0 .57-.22q-.4-.22-1.01-.41q-.62-.19-1.24-.42q-.62-.23-1.13-.56a1.75 1.75 0 0 1-.44-.42a1.57 1.57 0 0 1-.24-.47q-.22-.01-.39-.23a.99.99 0 0 1-.02-.04a.83.83 0 0 1-.15-.49a1.07 1.07 0 0 1 0-.1a2.13 2.13 0 0 0 .32-.23a.87.87 0 0 1 .2-.13a1.17 1.17 0 0 1 .16-.07a.7.7 0 0 1 .08 0q.17-.02.4.04q.3.07.65.18a57.25 57.25 0 0 1 .36.13a66.25 66.25 0 0 1 .37.13q.38.13.72.22a9.07 9.07 0 0 0 .43.1a11.26 11.26 0 0 0 .3.05a3.8 3.8 0 0 1 .53.13a3.27 3.27 0 0 1 .22.08a1.2 1.2 0 0 1 .16.08a.97.97 0 0 1 .1.08a.6.6 0 0 0 .23.11a.7.7 0 0 0 .03.01a2.62 2.62 0 0 1 .34.08a3.52 3.52 0 0 1 .32.12l.7.31l.7.35q.35.18.66.3q-.02.1.22.25a1.05 1.05 0 0 0 .5.17m-10.91-4.87a20 20 0 0 1 .76-1a7.58 7.58 0 0 1 .5-.55a6.18 6.18 0 0 1 .32-.3a1.55 1.55 0 0 1 .25-.19q.24-.14.48-.14a.87.87 0 0 1 .1.01a3.4 3.4 0 0 1 .25.76a2.93 2.93 0 0 1 .04.45a4.83 4.83 0 0 1 0 .14q0 .55-.11 1.23a8.07 8.07 0 0 1-.09.1l-.23.26a29.93 29.93 0 0 1-.13.15a66.14 66.14 0 0 0-.3.34a89.42 89.42 0 0 0-.33.38a249.68 249.68 0 0 1-.63.72a275.24 275.24 0 0 1-.1.1a63.05 63.05 0 0 0-.36.42a54.33 54.33 0 0 0-.34.4a21.63 21.63 0 0 0-.29.35l-.28.36a5.75 5.75 0 0 0-.13.17l-.17.27a1.16 1.16 0 0 0-.04.07a14.98 14.98 0 0 0-.12.14l-.33.37a52.29 52.29 0 0 0-.18.2a57.35 57.35 0 0 0-.61.72a65.28 65.28 0 0 0-.21.25a248.83 248.83 0 0 0-.8.96a228.47 228.47 0 0 0-.03.03l-.65.8q-.01.07.02.13a.22.22 0 0 0 .03.03q.07.07.1.15a1.21 1.21 0 0 0-.1.1q-.08.1-.11.2a.32.32 0 0 0 0 .02a.85.85 0 0 0-.03.2a.91.91 0 0 0 0 .1l.06.3a.87.87 0 0 1 .02.15v.15q-.13.1-.2.24a10.86 10.86 0 0 1-.16.27a1.44 1.44 0 0 1-.14.19a1.66 1.66 0 0 1-.04.05a.88.88 0 0 1-.16.14a1.13 1.13 0 0 1-.12.07q-.36-.04-.58-.1l-.39-.08a7.81 7.81 0 0 0-.13-.03a1.17 1.17 0 0 1-.4-.58a2.33 2.33 0 0 1-.09-.66a2.41 2.41 0 0 1 0-.06a4.01 4.01 0 0 1 .09-.73a8.61 8.61 0 0 1 .06-.3l.1-.33a.58.58 0 0 0 .03-.03q.14-.1-.02-.14a.88.88 0 0 1 .17-.32a.85.85 0 0 1 .07-.08a1 1 0 0 0 .07-.08q.1-.11.1-.2q.12-.19.46-.57a119.35 119.35 0 0 1 .35-.4a149.87 149.87 0 0 1 .39-.42a359.43 359.43 0 0 0 .68-.76a326.48 326.48 0 0 0 .1-.1a72.97 72.97 0 0 0 .17-.2l.4-.45q.08-.23.35-.57a5.77 5.77 0 0 1 .11-.14a72.83 72.83 0 0 1 .57-.66a80.9 80.9 0 0 1 .2-.23l.73-.86q.26-.32.32-.55a.54.54 0 0 0 .03-.12q.3-.21.65-.7z"/></svg>