<svg xmlns="http://www.w3.org/2000/svg" width="1em" height="1em" viewBox="0 0 32 32"><g fill="#a80030" stroke-width="1.333"><path d="M18.2 16.79c-.464 0 .088.239.693.332c.167-.133.319-.267.455-.392a3.466 3.466 0 0 1-1.148.059m2.49-.62a2.946 2.946 0 0 0 .548-1.23a3.002 3.002 0 0 1-.387.853c-.866.546-.081-.324 0-.655c-.933 1.173-.133.704-.161 1.032m.913-2.391c.056-.836-.164-.572-.239-.252c.087.045.155.59.239.252M16.442 2.361c.248.044.533.079.495.134c.266-.06.331-.115-.495-.134m.496.138l-.175.036l.163-.015z"/><path d="M24.654 14.094a4.132 4.132 0 0 1-.443 1.758l-.4.2c-.327.637.033.4-.202.912a11.072 11.072 0 0 1-1.888 1.513c-.244 0 .166-.288.219-.4c-.685.47-.55.707-1.6.993l-.03-.068c-2.586 1.217-6.179-1.2-6.132-4.484c-.028.21-.079.157-.133.241a4.142 4.142 0 0 1 2.324-4.087a3.923 3.923 0 0 1 4.36.567a3.887 3.887 0 0 0-3.177-1.525a3.591 3.591 0 0 0-3.085 1.84c-.702.443-.785 1.707-1.091 1.939c-.412 3.03.775 4.339 2.784 5.878c.316.214.09.246.133.408a5.45 5.45 0 0 1-1.78-1.362a4.787 4.787 0 0 0 .926 1.066c-.63-.213-1.466-1.525-1.716-1.578c1.086 1.942 4.4 3.406 6.132 2.68a7.245 7.245 0 0 1-2.727-.316c-.379-.195-.895-.6-.8-.675a6.772 6.772 0 0 0 6.87-.973c.52-.4 1.09-1.097 1.255-1.108c-.248.374.042.18-.148.51c.52-.839-.225-.342.533-1.448l.281.388c-.105-.696.864-1.541.767-2.642c.222-.337.248.362.012 1.137c.328-.859.086-.997.17-1.706a6.441 6.441 0 0 1 .267.742a3.27 3.27 0 0 1 .325-1.88c-.105-.047-.329.366-.38-.614c.008-.426.119-.223.162-.328a1.882 1.882 0 0 1-.436-1c.097-.148.258.38.39.399a9.73 9.73 0 0 1-.236-1.26c-.385-.8-.133.107-.448-.345c-.409-1.277.34-.296.391-.877a10.255 10.255 0 0 1 1.137 2.87a11.758 11.758 0 0 0-.569-2.045c.188.079-.304-1.447.245-.436a9.115 9.115 0 0 0-4.267-5.112c.216.199.49.447.392.485c-.88-.524-.725-.564-.85-.785c-.716-.292-.764.024-1.239 0A14.699 14.699 0 0 0 18.1 2.477l.056.267c-.895-.298-1.043.113-2.01 0c-.058-.046.31-.167.614-.21c-.865.114-.824-.172-1.67.031a7.19 7.19 0 0 1 .652-.368c-.706.043-1.684.41-1.381.076a16.248 16.248 0 0 0-4.34 2.309l-.035-.241c-.526.63-2.29 1.883-2.432 2.699l-.14.033a15.136 15.136 0 0 0-.666 1.467c-.357.609-.524.234-.473.329a22.261 22.261 0 0 0-1.355 3.606a20.679 20.679 0 0 1 .087 3.226c-.353 6.377 4.475 12.568 9.754 13.997a10.625 10.625 0 0 0 2.9.295c-1.154-.33-1.304-.174-2.429-.566c-.811-.383-.989-.819-1.563-1.317l.228.4c-1.127-.4-.656-.493-1.572-.784l.243-.317a2.089 2.089 0 0 1-1.132-.941l-.4.016c-.48-.592-.736-1.02-.717-1.35l-.133.23c-.147-.25-1.766-2.222-.927-1.764a1.895 1.895 0 0 1-.586-.64l.17-.195a3.256 3.256 0 0 1-.718-1.41a.914.914 0 0 0 .513.4c-1.021-2.532-1.078-.133-1.853-2.579l.164-.013a5.417 5.417 0 0 1-.302-.596l.07-.71c-.736-.851-.205-3.616-.1-5.133a14.755 14.755 0 0 1 1.025-2.302l-.25-.042c.478-.835 2.732-3.353 3.776-3.224c.505-.635-.1 0-.198-.162c1.11-1.15 1.466-.812 2.21-1.019c.807-.48-.695.187-.31-.182c1.396-.358.99-.812 2.813-.993c.192.109-.446.169-.606.31a7.514 7.514 0 0 1 5.32.316a7.791 7.791 0 0 1 4.119 5.981l.096.026a11.505 11.505 0 0 1-.195 3.159l.235-.493"/><path d="m13.137 17.427l-.065.325a6.25 6.25 0 0 0 .933 1.187c-.28-.547-.488-.773-.87-1.512m.723-.029a2.58 2.58 0 0 1-.364-.607a4.223 4.223 0 0 0 .507 1.028zm12.752-2.772l-.068.17a8.249 8.249 0 0 1-.808 2.58a8.106 8.106 0 0 0 .876-2.75M16.538 2.133A9.998 9.998 0 0 1 17.642 2c-.434.036-.865.059-1.292.113l.188.026M5.523 7.998c.072.667-.504.934.134.488c.338-.76-.134-.21-.134-.488M4.78 11.09a7.265 7.265 0 0 0 .227-.972c-.4.513-.185.623-.226.972"/></g></svg>